<?xml version="1.0" encoding="UTF-8"?>
<svg width="210px" height="82px" viewBox="0 0 210 82" version="1.1" xmlns="http://www.w3.org/2000/svg" xmlns:xlink="http://www.w3.org/1999/xlink">
    <title>logo/b&amp;w/black</title>
    <g id="logo/b&amp;w/black" stroke="none" stroke-width="1" fill="none" fill-rule="evenodd">
        <path d="M83.772268,18.5835 C88.155268,18.5835 92.051268,19.8975 95.459268,22.6255 C95.166268,17.3705 103.445268,17.3705 103.152268,22.6255 L103.152268,22.6255 L103.152268,60.5685 C103.152268,69.3345 94.478268,76.4675 83.822268,76.4675 C75.404268,76.4675 68.225268,72.0165 65.581268,65.8255 C64.517268,63.3315 66.438268,60.5695 69.150268,60.5695 C70.657268,60.5695 72.058268,61.4375 72.643268,62.8275 C74.073268,66.2255 78.613268,68.7865 83.822268,68.7865 C90.133268,68.7865 95.459268,65.0235 95.459268,60.5685 L95.459268,60.5685 L95.459268,54.6595 C92.051268,57.3875 88.155268,58.7025 83.772268,58.7025 C78.416268,58.7025 73.936268,56.7825 70.137268,52.8415 C66.340268,48.9005 64.489268,44.2505 64.489268,38.6935 C64.489268,33.1355 66.340268,28.3865 70.137268,24.4455 C73.936268,20.5045 78.416268,18.5835 83.772268,18.5835 Z M39.7137006,54.1711685 L39.9296201,54.1768723 C41.8691508,54.2668314 43.6973757,55.3960385 44.589068,57.2715 C45.878068,59.9805 44.727068,63.2225 42.018068,64.5105 C37.0440295,66.8768462 31.732528,68.1217056 26.221358,68.2139635 L25.559068,68.2195 L25.559068,68.2195 C19.810068,68.2195 14.273068,66.9715 9.10006797,64.5105 C6.39106797,63.2225 5.23906797,59.9805 6.52806797,57.2715 C7.45350387,55.3265769 9.38458342,54.1842101 11.4031706,54.1711685 L11.6197408,54.1741075 C12.3424789,54.198408 13.0721962,54.3682436 13.767068,54.6985 C17.470068,56.4605 21.438068,57.3535 25.559068,57.3535 C29.680068,57.3535 33.647068,56.4605 37.350068,54.6985 C38.1141449,54.3352179 38.9206235,54.166045 39.7137006,54.1711685 Z M161.301768,22.626 L161.301768,55.064 C161.593768,60.319 153.314768,60.319 153.607768,55.064 L153.607768,22.626 C153.314768,17.371 161.593768,17.371 161.301768,22.626 Z M127.307068,18.5836 C131.690068,18.5836 135.586068,19.8976 138.995068,22.6256 C138.702068,17.3706 146.883068,17.3706 146.687068,22.6256 L146.687068,54.6586 C146.883068,59.9136 138.702068,59.9136 138.995068,54.6586 C135.586068,57.3876 131.690068,58.7016 127.307068,58.7016 C121.952068,58.7016 117.471068,56.7816 113.672068,52.8416 C109.875068,48.9006 108.025068,44.2506 108.025068,38.6936 C108.025068,33.1356 109.875068,28.3866 113.672068,24.4456 C117.471068,20.5046 121.952068,18.5836 127.307068,18.5836 Z M185.551268,18.5836 C189.934268,18.5836 193.830268,19.8976 197.239268,22.6256 C196.947268,17.3706 205.127268,17.3706 204.932268,22.6256 L204.932268,54.6586 C205.127268,59.9136 196.947268,59.9136 197.239268,54.6586 C193.830268,57.3876 189.934268,58.7016 185.551268,58.7016 C180.196268,58.7016 175.715268,56.7816 171.917268,52.8416 C168.119268,48.9006 166.269268,44.2506 166.269268,38.6936 C166.269268,33.1356 168.119268,28.3866 171.917268,24.4456 C175.715268,20.5046 180.196268,18.5836 185.551268,18.5836 Z M127.307068,26.5676 C124.093068,26.5676 121.367068,27.7806 119.127068,30.1046 C116.887068,32.4276 115.718068,35.3596 115.718068,38.6936 C115.718068,42.0286 116.887068,44.8576 119.127068,47.1816 C121.367068,49.5056 124.093068,50.7186 127.307068,50.7186 C130.521068,50.7186 133.345068,49.5056 135.586068,47.1816 C137.826068,44.8576 138.995068,42.0286 138.995068,38.6936 C138.995068,35.3596 137.826068,32.4276 135.586068,30.1046 C133.345068,27.7806 130.521068,26.5676 127.307068,26.5676 Z M185.551268,26.5676 C182.337268,26.5676 179.611268,27.7806 177.371268,30.1046 C175.132268,32.4276 173.963268,35.3596 173.963268,38.6936 C173.963268,42.0286 175.132268,44.8576 177.371268,47.1816 C179.611268,49.5056 182.337268,50.7186 185.551268,50.7186 C188.765268,50.7186 191.590268,49.5056 193.830268,47.1816 C196.070268,44.8576 197.239268,42.0286 197.239268,38.6936 C197.239268,35.3596 196.070268,32.4276 193.830268,30.1046 C191.590268,27.7806 188.765268,26.5676 185.551268,26.5676 Z M83.772268,26.5675 C80.558268,26.5675 77.831268,27.7805 75.592268,30.1035 C73.352268,32.4275 72.183268,35.3595 72.183268,38.6935 C72.183268,42.0285 73.352268,44.8575 75.592268,47.1815 C77.831268,49.5055 80.558268,50.7185 83.772268,50.7185 C86.986268,50.7185 89.810268,49.5055 92.051268,47.1815 C94.290268,44.8575 95.459268,42.0285 95.459268,38.6935 C95.459268,35.3595 94.290268,32.4275 92.051268,30.1035 C89.810268,27.7805 86.986268,26.5675 83.772268,26.5675 Z M25.558968,11.9733 C36.169968,11.9733 44.772968,20.5753 44.772968,31.1863 C44.772968,41.7983 36.169968,50.4003 25.558968,50.4003 C14.947968,50.4003 6.34496797,41.7983 6.34496797,31.1863 C6.34496797,20.5753 14.947968,11.9733 25.558968,11.9733 Z M157.454768,6 C159.981768,6 162.030768,8.049 162.030768,10.576 C162.030768,13.102 159.981768,15.151 157.454768,15.151 C154.926768,15.151 152.879768,13.102 152.879768,10.576 C152.879768,8.049 154.926768,6 157.454768,6 Z" id="gaia" fill="#000000"></path>
    </g>
</svg>