<svg width="327" height="293" viewBox="0 0 327 293" fill="none" xmlns="http://www.w3.org/2000/svg">
<path fill-rule="evenodd" clip-rule="evenodd" d="M215 293H247C260.255 293 271 282.255 271 269V24C271 10.7452 260.255 0 247 0H215C228.255 0 239 10.7452 239 24V269C239 282.255 228.255 293 215 293Z" fill="white"/>
<path fill-rule="evenodd" clip-rule="evenodd" d="M271 293H303C316.255 293 327 282.255 327 269V24C327 10.7452 316.255 0 303 0H271C284.255 0 295 10.7452 295 24V269C295 282.255 284.255 293 271 293Z" fill="white"/>
<rect width="215" height="293" rx="24" fill="white"/>
</svg>
