<svg width="16" height="14" viewBox="0 0 16 14" fill="none" xmlns="http://www.w3.org/2000/svg">
<rect y="2" width="16" height="3" fill="#9A9FAC"/>
<circle cx="5.5" cy="3.5" r="3.5" fill="#9A9FAC"/>
<path d="M7 3.5C7 4.32843 6.32843 5 5.5 5C4.67157 5 4 4.32843 4 3.5C4 2.67157 4.67157 2 5.5 2C6.32843 2 7 2.67157 7 3.5Z" fill="white"/>
<rect width="16" height="3" transform="matrix(-1 0 0 1 16 9)" fill="#9A9FAC"/>
<circle r="3.5" transform="matrix(-1 0 0 1 11.5 10.5)" fill="#9A9FAC"/>
<path d="M10 10.5C10 11.3284 10.6716 12 11.5 12C12.3284 12 13 11.3284 13 10.5C13 9.67157 12.3284 9 11.5 9C10.6716 9 10 9.67157 10 10.5Z" fill="white"/>
</svg>
