<?xml version="1.0" encoding="utf-8"?>
<!-- Generator: Adobe Illustrator 26.0.0, SVG Export Plug-In . SVG Version: 6.00 Build 0)  -->
<svg version="1.1" id="Capa_1" xmlns="http://www.w3.org/2000/svg" xmlns:xlink="http://www.w3.org/1999/xlink" x="0px" y="0px"
	 viewBox="0 0 80 78" style="enable-background:new 0 0 80 78;" xml:space="preserve">
<g>
	<path d="M10.4,33.1H17v1.3h1.3v4H17v1.3h1.3v4H17v1.3h-6.6V33.1z M13,35.7V37h2.6v-1.3H13z M13,39.7v2.6h2.6v-2.6H13z"/>
	<path d="M21,33.1h5.3v1.3h1.3v10.5h-2.6v-4h-2.6v4h-2.6V34.4H21V33.1z M22.3,35.7v2.6h2.6v-2.6H22.3z"/>
	<path d="M28.9,33.1h2.6v9.2h4v2.6h-6.6L28.9,33.1L28.9,33.1z"/>
	<path d="M36.8,33.1h2.6v9.2h4v2.6h-6.6L36.8,33.1L36.8,33.1z"/>
	<path d="M44.7,33.1h6.6v2.6h-4V37h4v2.6h-4v2.6h4v2.6h-6.6V33.1z"/>
	<path d="M52.6,33.1h6.6v1.3h1.3v4h-1.3v1.3h1.3v5.3h-2.6v-4h-2.6v4h-2.6V33.1z M55.2,35.7v2.6h2.6v-2.6H55.2z"/>
	<path d="M61.8,33.1h7.9v4h-1.3v1.3h-1.3v1.3h-1.3V41h-1.3v1.3h5.3v2.6h-7.9v-5.3h1.3v-1.3h1.3V37h1.3v-1.3h-4L61.8,33.1L61.8,33.1z
		"/>
</g>
</svg>
