<?xml version="1.0" standalone="no"?>
<!DOCTYPE svg PUBLIC "-//W3C//DTD SVG 20010904//EN"
 "http://www.w3.org/TR/2001/REC-SVG-20010904/DTD/svg10.dtd">
<svg version="1.0" xmlns="http://www.w3.org/2000/svg"
 width="310.000000pt" height="310.000000pt" viewBox="0 0 310.000000 310.000000"
 preserveAspectRatio="xMidYMid meet">
<metadata>
Created by potrace 1.14, written by Peter Selinger 2001-2017
</metadata>
<g transform="translate(0.000000,310.000000) scale(0.100000,-0.100000)"
fill="#000000" stroke="none">
<path d="M387 3070 c-180 -65 -293 -180 -357 -361 l-30 -84 0 -1076 0 -1076
26 -79 c58 -178 182 -306 361 -371 l64 -23 1102 0 c1176 0 1112 -2 1227 48 74
32 165 106 213 174 39 55 55 86 98 196 5 13 9 490 9 1127 l0 1104 -23 64 c-65
179 -193 303 -371 361 l-79 26 -1081 -1 -1081 -1 -78 -28z m1368 -444 c207
-56 384 -204 480 -401 53 -108 75 -204 75 -330 0 -226 -79 -408 -245 -563
-251 -235 -650 -266 -934 -73 -189 129 -303 319 -333 554 -20 158 18 331 103
473 103 170 288 305 481 349 82 18 290 14 373 -9z m-720 -1600 c19 -8 62 -37
95 -63 72 -59 162 -105 250 -128 79 -21 252 -24 330 -6 79 18 207 83 265 134
65 57 105 77 155 77 81 0 147 -50 171 -129 24 -79 -6 -142 -105 -224 -313
-257 -787 -299 -1139 -100 -177 100 -257 186 -257 276 0 122 125 209 235 163z"/>
</g>
</svg>
