<?xml version="1.0" encoding="utf-8"?>
<!-- Generator: Adobe Illustrator 24.3.0, SVG Export Plug-In . SVG Version: 6.00 Build 0)  -->
<svg version="1.1" id="design" xmlns="http://www.w3.org/2000/svg" xmlns:xlink="http://www.w3.org/1999/xlink" x="0px" y="0px"
	 viewBox="0 0 566.9 528.5" style="enable-background:new 0 0 566.9 528.5;" xml:space="preserve">
<style type="text/css">
	.st0{fill:none;stroke:#000000;stroke-width:2.1116;stroke-miterlimit:10;}
</style>
<g>
	<circle class="st0" cx="284.5" cy="265.8" r="255.3"/>
	<g>
		<g>
			<g>
				<g>
					<path d="M167.4,67.1l8,18.3c8.2,18.9,14.4,33,24.4,55.8c35-19.4,54.4-26.2,93.9-32.8l-9.1-20.8c-25.2,4.2-38,7.8-62.1,17.6
						l-0.2,0.1l0,0c-7.8,3.2-11.6,4.9-19.2,8.6l-1.5,0.7l1.1-1.2c6.3-6.7,9.5-9.9,16-16.1L199,51.9
						C185.9,57.2,179.6,60.2,167.4,67.1z"/>
					<path d="M330.2,77.2c-7.7-17.6-11.4-26.2-19.5-44.6c-14.4-0.9-21.8-0.9-36.3,0.3c13,29.7,19.1,43.9,32.1,73.7
						c17.6-2.2,31.6-3.2,45.1-2.9c17.6,0.4,34.2,3,57,8.2L400,92.1c-26.8-6.1-40.6-7.7-66.7-8.1l-0.2,0l0,0c-7.6-0.1-11.4,0-19,0.4
						l-1.6,0.1l1.4-0.7C320.5,80.8,323.7,79.5,330.2,77.2z"/>
					<path d="M153.6,165.3c2.1,1.4,3.2,2.1,5.3,3.5c11.6-9.8,18.1-14.2,31.5-22.2c-29.5-19.6-44.1-28.9-71.3-44.8
						c-13.9,13.4-20.4,21.2-32.4,37.8c0.2,7.5,0.5,14.4,0.7,20.9c1,32.1,1.7,53.4,4.3,91.7c7.3-12.3,11.3-18.7,20.1-31.1
						c-0.3-7.2-0.5-10.8-0.8-17.9l0-0.1l0.1-0.1c13.4-18,20.6-26.5,36.9-41.2l0.1-0.1c6.1-5.5,9.1-8,15.3-12.6l1.4-1.1l-1,1.5
						C159.6,155.6,157.6,158.7,153.6,165.3z M131.8,151.8c-7.1,7.2-10.5,11-17.4,19.5c-1.5,1.8-2.3,2.8-3.8,4.7
						c-5.4,6.8-7.9,10.4-13.2,18l-1.4,2l0.9-2.3c5-13.4,7.6-19.6,12.9-31.7c-0.2-9.2-0.3-13.9-0.5-23.8l0-0.5l0.5,0.3
						c8.7,5.1,13.1,7.8,22.1,13.4l0.3,0.2L131.8,151.8z"/>
				</g>
			</g>
			<g>
				<g>
					<path d="M306.5,481.7c6.6-9.8,2.3-21.5,0.1-26l-1.4-3c-7.3-15.4-24.7-26.2-85.9-29.3c-23-1.1-34.9-2.9-56.3-7.4
						c6.9,14.5,11.3,25,15.6,35.2c4.3,10.2,7.7,19.6,14.7,34.2c20.3,5.9,36.2,7.9,59.3,9.6C280.5,497.1,299.2,492.5,306.5,481.7z
						 M268.7,470.2c-3,4.3-10.3,6.4-21.7,6.2c-2.5,0-5.2-0.2-8-0.4c-3.6-0.3-5.3-0.5-9.1-0.9c-2.4-0.3-3.6-0.4-6-0.7
						c-9.1-1.1-13.7-1.8-23.3-3.5l-1.8-0.3l1.8-0.3c7.9-1.2,11.9-1.9,19.7-3.6c-1.7-3.7-3-6.8-4.3-9.7c-2.3-5.2-4.3-9.7-7.3-16.4
						l-0.2-0.5l0.5,0.1c5.9,0.7,8.8,0.9,14.8,1.3c16.2,1.1,38.5,4.1,44.7,17.3l0.3,0.6C270,462.4,271.1,466.7,268.7,470.2z"/>
					<path d="M452.5,353.3l0,0.3l-0.3,0c-12.3-1.3-18.6-2.4-31.3-5c-12.5,11.5-19.4,17.1-33.3,26.5c24.9,6.5,37.6,9.4,61,12.2l0.2,0
						l0.1,0.2c5.1,10.7,7.7,16.2,12.9,27c10.2-11,14.8-16.9,23.3-28.7c-4.1-8.7-6.2-13-10.1-21.2c-3.6,4.9-5.4,7.3-9.2,11.9
						l-1.4,1.7l0.9-2c2.9-6.7,4.3-10.1,7.1-17l0,0l0-0.1l0.5-4.1c3.9-31.8,5.8-47.9,7-82.9c-7.4,14-11.7,20.8-21.2,33.8
						C456.6,325.5,455.3,334.9,452.5,353.3z"/>
					<path d="M410.7,448.2c1.6,1.1,2.7,1.8,4,2.7l1.7,1.1c13.6-8.8,19.7-13.2,31.1-23.6c-28.1-15.7-42.9-24.4-74.5-44.1
						c-16.4,9.8-25.4,14.2-43.2,21.1c-3.3,35-5.2,52.5-9.8,86.4c14-2.8,21.1-4.9,34.7-9.7c0.5-5.6,0.7-8.4,1.2-14.2l0-0.2l0.2-0.1
						c17.4-6.5,26.1-10.7,42-19.9l0,0l0.3-0.2c9.5-5.5,14-8.4,22.9-14.7l1.4-1l-1,1.4C417.3,439.6,415.1,442.5,410.7,448.2z
						 M385.9,432.1c-11,6.1-16.5,8.8-28.2,13.7l-0.6,0.3l0,0c-7.4,3.1-11.3,4.6-19.2,7.2l-1.5,0.5l1.2-1
						c8.5-7.1,12.5-10.8,20.4-18.7c0.5-8,0.8-12,1.3-20.2l0-0.5l0.4,0.3c10.3,7.2,15.5,10.8,26.1,18l0.4,0.3L385.9,432.1z"/>
				</g>
			</g>
		</g>
		<g>
			<path d="M57.3,196.9c0,0-28.1,68.8,7.6,157.7c0,0,5.7-40.4,12.3-71.8c0,0-10.2,21.9-16.2,42.5C61,325.3,41.6,275,57.3,196.9z"/>
			<path d="M64.8,354.6C64.8,354.6,64.8,354.6,64.8,354.6c0.1,0.2,28.8,76.7,93.2,111.3c0,0-46.3-31.1-70.6-77.6
				c0,0,21,8.3,32.3,9.5C119.6,397.9,80.3,378.4,64.8,354.6z"/>
		</g>
		<g>
			<path d="M396.7,51.2c0,0,68.9,34.1,106.7,122c0,0-32.8-29.4-59.8-47.1c0.4,0.3,40.1,21.2,39.5,20.9C483,146.9,465,105,396.7,51.2
				z"/>
			<path d="M503.4,173.2C503.4,173.2,503.4,173.2,503.4,173.2c0.1,0.2,33.9,74.3,11.4,149.6c0,0,11.8-65.5-4-112.7
				c0,0-10.7,25.6-18.6,37.6C492.2,247.7,509.4,200.9,503.4,173.2z"/>
		</g>
	</g>
</g>
<g>
	<path d="M291.7,203c-1.7-1.4-4.2-3.1-8-4c-0.7,0.5-1.4,1.1-2.1,1.8c3,0.6,5.8,2,8.3,4C290.5,204.2,291.1,203.6,291.7,203"/>
	<path d="M284.5,211.6c-2-1.7-5-3.4-8.6-4.1c-0.5,0.8-1.4,2.2-1.4,2.2c2.9,0.6,6,1.9,8.5,4C283.5,213.1,284,212.4,284.5,211.6"/>
	<path d="M287.9,207.2c-2.8-2.3-6-3.6-8.6-4.1c-0.6,0.6-1.2,1.3-1.7,2c3.3,0.7,6.2,2.2,8.6,4.2C286.8,208.5,287.3,207.8,287.9,207.2
		"/>
	<path d="M318.9,192.8c-24.7-6.2-34.3-24.7-34.3-24.7s-9.6,18.5-34.3,24.7c-21.2,5.3-36.3-6.4-36.3-6.4v122.9
		c0,4.2,1.7,21.9,34.8,26.7c13.1,1.9,22.8,6.1,29.8,12.8c2.5,2.4,4.4,4.9,5.9,7.2c1.5-2.3,3.4-4.7,5.9-7.2
		c7-6.7,16.8-10.9,29.8-12.8c33.1-4.8,34.8-22.5,34.8-26.7V186.4C355.1,186.4,340.1,198.1,318.9,192.8 M313.3,205.4l2.3-6.5l2.3,6.5
		h6.9l-5.6,4.2l2.1,6.6l-5.6-3.9l-5.6,3.9l2.1-6.6l-5.6-4.2H313.3z M313.3,227.5l2.3-6.5l2.3,6.5h6.9l-5.6,4.2l2.1,6.6l-5.6-3.9
		l-5.6,3.9l2.1-6.6l-5.6-4.2H313.3z M297.6,191.1c1.2,0,1.7,0.2,1.7,0.2s-4,1.5-8.6,5c0,0-1.1-0.5-2.3-0.7c-0.7,0.5-1.5,1-2.2,1.5
		c2.1,0.5,4.9,1.6,7.5,3.8c0.6-0.6,1.2-1.1,1.8-1.7c-0.6-0.5-1.6-1.2-2.5-1.7c4.1-4,7-5.5,7-5.5c0.6-0.1,0.9,0.7,1.1,1.1
		c2.5,6.1,3.1,13.6,1.2,20.8c-2.8,11-12.1,21.1-31.9,23.6c-0.4,0.1-0.9-0.1-1-0.3c0.9-4.2,3.1-12.1,8-20.5c0.9,0.5,1.8,1.1,2.7,1.8
		c0.3-0.5,0.7-1.1,1.3-2c-2.4-1.9-5.2-3.3-8.4-3.8c0,0-0.6,1.2-1,2.1c0,0,1.2,0.2,2.7,0.8c-4.3,9.1-5.7,17.6-6.1,21.5
		c-1.2-2-2.2-6.4-2.5-8.9C262.8,204.9,279.5,191.4,297.6,191.1 M251.2,205.4l2.3-6.5l2.3,6.5h6.9l-5.6,4.2l2.1,6.6l-5.6-3.9
		l-5.6,3.9l2.1-6.6l-5.6-4.2H251.2z M251.2,227.5l2.3-6.5l2.3,6.5h6.9l-5.6,4.2l2.1,6.6l-5.6-3.9l-5.6,3.9l2.1-6.6l-5.6-4.2H251.2z
		 M226.7,205.4l2.3-6.5l2.3,6.5h6.9l-5.6,4.2l2.1,6.6l-5.6-3.9l-5.6,3.9l2.1-6.6l-5.6-4.2H226.7z M219.8,227.5h6.9l2.3-6.5l2.3,6.5
		h6.9l-5.6,4.2l2.1,6.6l-5.6-3.9l-5.6,3.9l2.1-6.6L219.8,227.5z M319.1,327.8c-25,3.8-34.6,15.7-34.6,15.7s-9.6-11.8-34.6-15.7
		c-28.6-4.4-27.7-17.8-27.7-18.5v-64.4h124.6v64.4C346.8,309.9,347.7,323.4,319.1,327.8 M337.8,205.4l2.3-6.5l2.3,6.5h6.9l-5.6,4.2
		l2.1,6.6l-5.6-3.9l-5.6,3.9l2.1-6.6l-5.6-4.2H337.8z M337.8,227.5l2.3-6.5l2.3,6.5h6.9l-5.6,4.2l2.1,6.6l-5.6-3.9l-5.6,3.9l2.1-6.6
		l-5.6-4.2H337.8z"/>
	<polygon points="251.6,259.2 255.5,261.3 255.5,291.9 242.2,251.2 228,251.2 228,259.2 232.4,261.3 232.4,305.4 228.1,307.1
		228.1,314 246.9,318.8 246.9,310.7 242.6,307.4 242.6,281.1 256.1,321 265.5,323.8 265.5,261.3 269.1,259.2 269.1,251.2
		251.6,251.2 	"/>
	<polygon points="272.9,259.3 277,261.3 277,317 272.9,318.7 272.9,325.4 291.4,332.4 291.4,324.4 287.7,319.9 287.7,289.1
		294,289.1 296.3,292.5 301.2,292.5 301.2,275.9 296.3,275.9 293.9,279.4 287.7,279.4 287.7,260.7 295.9,260.7 298.1,267.4
		305.2,267.4 305.2,251.2 272.9,251.2 	"/>
	<polygon points="331.9,305.8 323.9,307.9 323.9,261.3 327.5,259.3 327.5,251.2 308.9,251.2 308.9,259.3 312.8,261.3 312.8,311
		308.2,314.8 308.2,322.7 341,314 341,293.6 333.4,293.6 	"/>
</g>
</svg>
