<?xml version="1.0" encoding="utf-8"?>
<!-- Generator: Adobe Illustrator 24.3.0, SVG Export Plug-In . SVG Version: 6.00 Build 0)  -->
<svg version="1.1" xmlns="http://www.w3.org/2000/svg" xmlns:xlink="http://www.w3.org/1999/xlink" x="0px" y="0px"
	 viewBox="0 0 566.9 528.5" style="enable-background:new 0 0 566.9 528.5;" xml:space="preserve">
<style type="text/css">
	.st0{display:none;}
	.st1{display:inline;fill:#1D1D1B;}
	.st2{fill:none;stroke:#FFFFFF;stroke-width:2.1127;stroke-miterlimit:10;}
	.st3{fill:#FFFFFF;}
	.st4{fill:#FFFFFF;enable-background:new    ;}
</style>
<g id="Layer_2" class="st0">
	<rect x="1" y="2.2" class="st1" width="567.6" height="527.4"/>
</g>
<g id="design">
	<g>
		<circle class="st2" cx="284.5" cy="265.8" r="255.4"/>
		<g>
			<g>
				<g>
					<g>
						<path class="st3" d="M167.3,66.9l8,18.3c8.2,18.9,14.4,33,24.4,55.9c35-19.4,54.4-26.2,94-32.8l-9.1-20.8
							c-25.2,4.2-38,7.8-62.1,17.6l-0.2,0.1l0,0c-7.8,3.2-11.6,4.9-19.2,8.6l-1.5,0.7l1.1-1.2c6.3-6.7,9.5-9.9,16.1-16.1l-19.8-45.4
							C185.9,57.1,179.6,60.1,167.3,66.9z"/>
						<path class="st3" d="M330.2,77.1c-7.7-17.6-11.4-26.2-19.5-44.7c-14.4-0.9-21.8-0.9-36.3,0.3c13,29.8,19.2,43.9,32.2,73.7
							c17.7-2.2,31.6-3.2,45.1-2.9c17.6,0.4,34.2,3,57,8.2L400,92c-26.9-6.1-40.6-7.7-66.7-8.1l-0.2,0l0,0c-7.6-0.1-11.4,0-19,0.4
							l-1.6,0.1l1.4-0.7C320.5,80.7,323.7,79.4,330.2,77.1z"/>
						<path class="st3" d="M153.6,165.3c2.1,1.4,3.2,2.1,5.3,3.5c11.6-9.8,18.1-14.2,31.5-22.3c-29.5-19.7-44.1-29-71.4-44.8
							c-14,13.4-20.4,21.3-32.4,37.9c0.2,7.6,0.5,14.4,0.7,20.9c1,32.1,1.7,53.4,4.3,91.7c7.3-12.3,11.3-18.7,20.1-31.1
							c-0.3-7.2-0.5-10.8-0.8-17.9l0-0.1l0.1-0.1c13.4-18,20.6-26.5,36.9-41.2l0.1-0.1c6.1-5.5,9.1-8,15.3-12.6l1.4-1.1l-1,1.5
							C159.5,155.5,157.5,158.6,153.6,165.3z M131.7,151.7c-7.1,7.2-10.5,11-17.5,19.5c-1.5,1.8-2.3,2.8-3.8,4.8
							c-5.4,6.8-8,10.4-13.2,18l-1.4,2l0.9-2.3c5-13.4,7.6-19.6,12.9-31.7c-0.2-9.2-0.3-13.9-0.5-23.8l0-0.5l0.5,0.3
							c8.7,5.1,13.1,7.8,22.1,13.4l0.3,0.2L131.7,151.7z"/>
					</g>
				</g>
				<g>
					<g>
						<path class="st3" d="M306.5,481.8c6.6-9.8,2.3-21.5,0.1-26.1l-1.4-3c-7.3-15.4-24.7-26.2-86-29.3c-23-1.1-34.9-2.9-56.4-7.4
							c6.9,14.5,11.3,25,15.7,35.2c4.3,10.2,7.7,19.6,14.7,34.2c20.3,5.9,36.2,7.9,59.3,9.6C280.5,497.2,299.2,492.6,306.5,481.8z
							 M268.7,470.3c-3,4.3-10.3,6.4-21.7,6.2c-2.5,0-5.2-0.2-8-0.4c-3.6-0.3-5.3-0.5-9.1-0.9c-2.4-0.3-3.6-0.4-6-0.7
							c-9.1-1.1-13.7-1.8-23.4-3.5l-1.8-0.3l1.8-0.3c7.9-1.2,11.9-1.9,19.8-3.6c-1.7-3.7-3-6.8-4.3-9.7c-2.3-5.2-4.3-9.7-7.3-16.4
							l-0.2-0.5l0.5,0.1c6,0.7,8.8,0.9,14.8,1.3c16.2,1.1,38.5,4.1,44.7,17.3l0.3,0.6C270,462.5,271.1,466.8,268.7,470.3z"/>
						<path class="st3" d="M452.5,353.3l0,0.3l-0.3,0c-12.3-1.3-18.7-2.4-31.3-5c-12.5,11.5-19.4,17.1-33.3,26.5
							c24.9,6.5,37.6,9.4,61.1,12.2l0.2,0l0.1,0.2c5.1,10.7,7.7,16.2,12.9,27.1c10.2-11,14.8-16.9,23.3-28.7
							c-4.1-8.7-6.2-13-10.1-21.2c-3.6,4.9-5.4,7.3-9.2,11.9l-1.4,1.7l0.9-2c2.9-6.7,4.3-10.1,7.1-17l0,0l0-0.1l0.5-4.1
							c3.9-31.8,5.8-48,7-82.9c-7.4,14-11.7,20.8-21.2,33.8C456.7,325.5,455.4,334.9,452.5,353.3z"/>
						<path class="st3" d="M410.7,448.3c1.6,1.1,2.7,1.8,4,2.7l1.7,1.1c13.6-8.8,19.7-13.2,31.1-23.6
							c-28.1-15.7-42.9-24.4-74.5-44.2c-16.4,9.8-25.4,14.2-43.3,21.2c-3.3,35-5.2,52.5-9.8,86.4c14-2.8,21.1-4.9,34.7-9.7
							c0.5-5.6,0.7-8.5,1.2-14.2l0-0.2l0.2-0.1c17.4-6.6,26.1-10.7,42.1-19.9l0,0l0.3-0.2c9.5-5.5,14-8.4,22.9-14.7l1.4-1l-1,1.4
							C417.4,439.7,415.2,442.6,410.7,448.3z M386,432.2c-11,6.1-16.5,8.8-28.2,13.7l-0.6,0.3l0,0c-7.4,3.1-11.3,4.6-19.2,7.2
							l-1.5,0.5l1.2-1c8.5-7.1,12.5-10.8,20.5-18.8c0.5-8,0.8-12,1.3-20.3l0-0.5l0.4,0.3c10.3,7.2,15.5,10.8,26.1,18l0.4,0.3
							L386,432.2z"/>
					</g>
				</g>
			</g>
			<g>
				<path class="st3" d="M57.1,196.9c0,0-28.1,68.8,7.6,157.8c0,0,5.7-40.4,12.3-71.8c0,0-10.2,21.9-16.2,42.5
					C60.9,325.3,41.5,275,57.1,196.9z"/>
				<path class="st3" d="M64.7,354.7C64.7,354.7,64.7,354.6,64.7,354.7c0.1,0.2,28.8,76.7,93.2,111.4c0,0-46.4-31.1-70.7-77.6
					c0,0,21,8.3,32.3,9.6C119.5,398,80.2,378.5,64.7,354.7z"/>
			</g>
			<g>
				<path class="st3" d="M396.7,51c0,0,68.9,34.1,106.8,122.1c0,0-32.8-29.5-59.8-47.2c0.4,0.3,40.1,21.2,39.5,20.9
					C483.1,146.9,465.1,105,396.7,51z"/>
				<path class="st3" d="M503.5,173.2C503.5,173.2,503.5,173.2,503.5,173.2c0.1,0.2,33.9,74.3,11.4,149.7c0,0,11.8-65.6-4-112.8
					c0,0-10.7,25.6-18.6,37.6C492.3,247.7,509.5,200.8,503.5,173.2z"/>
			</g>
		</g>
	</g>
	<g>
		<path class="st3" d="M347.8,190.5c-5.9,4.3-17.3,10.1-31.9,6.5c-25.3-6.2-32.6-28.1-32.6-28.1s-7.2,21.8-32.6,28.1
			c-14.6,3.6-26-2.2-31.9-6.5h-4.6v117.6c0,3,0.7,8.8,5.6,14.7c6,7.2,16.1,11.9,30,14c11.1,1.6,19.4,5.1,25.2,10.7
			c4.3,4.1,8.3,11.2,8.3,11.2s4.2-7.3,8.3-11.2c5.8-5.6,14-9.1,25.2-10.7c14-2,24.1-6.7,30-14c4.8-5.9,5.5-11.7,5.6-14.7V190.5
			H347.8z M348.2,308.1c0,3.8-1.6,20.2-32,24.6c-12,1.7-21,5.6-27.4,11.8c-2.3,2.2-4.1,4.5-5.4,6.6c-1.3-2.1-3.1-4.3-5.4-6.6
			c-6.4-6.2-15.4-10.1-27.4-11.8c-30.4-4.4-32-20.7-32-24.6V195.1c0,0,13.8,10.8,33.3,5.9c22.7-5.7,31.6-22.7,31.6-22.7
			s8.8,17,31.6,22.7c19.5,4.9,33.3-5.9,33.3-5.9V308.1z"/>
		<path class="st4" d="M340.6,308.1v-59.2H226v59.2c0,0.6-0.8,13,25.5,17c23,3.5,31.8,14.4,31.8,14.4s8.8-10.9,31.8-14.4
			C341.4,321.1,340.6,308.8,340.6,308.1z M269.2,262l-3.4,2v57.4l-8.6-2.6l-12.4-36.7l0,24.2l3.9,3v7.5l-17.3-4.4v-6.4l4-1.5v-40.5
			l-4-2v-7.3h13.1l12.2,37.4l0-28.2l-3.5-2v-7.3h16.1V262z M302.3,269.6h-6.5l-2-6.1h-7.6v17.2h5.7l2.2-3.3h4.6v15.3h-4.6l-2.1-3.1
			h-5.8v28.3l3.4,4.1v7.3l-17.1-6.4v-6.2l3.8-1.5V264l-3.8-1.9v-7.4h29.7V269.6z M335.3,312.5l-30.2,8.1v-7.3l4.2-3.5V264l-3.6-1.9
			v-7.4h17.1v7.4l-3.4,1.9v42.9l7.4-2l1.4-11.2h7V312.5z"/>
		<g>
			<g>
				<path class="st3" d="M229,236.8l-5.2-3.9h6.3l2.1-6l2.1,6h6.3l-5.2,3.9l1.9,6.1l-5.1-3.6l-5.1,3.6L229,236.8z"/>
			</g>
			<g>
				<path class="st3" d="M251.5,236.8l-5.2-3.9h6.3l2.1-6l2.1,6h6.3l-5.2,3.9l1.9,6.1l-5.1-3.6l-5.1,3.6L251.5,236.8z"/>
			</g>
			<g>
				<path class="st3" d="M229,216.5l-5.2-3.9h6.3l2.1-6l2.1,6h6.3l-5.2,3.9l1.9,6.1l-5.1-3.6l-5.1,3.6L229,216.5z"/>
			</g>
			<g>
				<path class="st3" d="M251.5,216.5l-5.2-3.9h6.3l2.1-6l2.1,6h6.3l-5.2,3.9l1.9,6.1l-5.1-3.6l-5.1,3.6L251.5,216.5z"/>
			</g>
		</g>
		<g>
			<g>
				<path class="st3" d="M339.5,242.9l-5.1-3.6l-5.1,3.6l1.9-6.1l-5.2-3.9h6.3l2.1-6l2.1,6h6.3l-5.2,3.9L339.5,242.9z"/>
			</g>
			<g>
				<path class="st3" d="M317.1,242.9l-5.1-3.6l-5.1,3.6l1.9-6.1l-5.2-3.9h6.3l2.1-6l2.1,6h6.3l-5.2,3.9L317.1,242.9z"/>
			</g>
			<g>
				<path class="st3" d="M339.5,222.6l-5.1-3.6l-5.1,3.6l1.9-6.1l-5.2-3.9h6.3l2.1-6l2.1,6h6.3l-5.2,3.9L339.5,222.6z"/>
			</g>
			<g>
				<path class="st3" d="M317.1,222.6l-5.1-3.6l-5.1,3.6l1.9-6.1l-5.2-3.9h6.3l2.1-6l2.1,6h6.3l-5.2,3.9L317.1,222.6z"/>
			</g>
		</g>
		<path class="st3" d="M298.6,201.2c-0.2-0.4-0.5-1.1-1-1c0,0-2.7,1.4-6.4,5.1c0.8,0.5,1.8,1.1,2.3,1.6c-0.6,0.5-1.1,1-1.7,1.6
			c-2.4-2-5-3-6.9-3.5c0.7-0.5,1.3-0.9,2-1.4c1.1,0.3,2.1,0.7,2.1,0.7c4.2-3.2,7.9-4.6,7.9-4.6s-0.4-0.2-1.6-0.2
			c-16.6,0.2-32,12.6-29.1,33.9c0.3,2.3,1.2,6.4,2.3,8.1c0.4-3.5,1.7-11.4,5.6-19.7c-1.4-0.5-2.5-0.7-2.5-0.7c0.4-0.8,1-1.9,1-1.9
			c2.9,0.5,5.5,1.8,7.7,3.5c-0.5,0.9-0.9,1.4-1.2,1.9c-0.8-0.6-1.6-1.1-2.4-1.6c-4.4,7.7-6.5,15.1-7.3,18.9c0,0.2,0.5,0.4,0.9,0.3
			c18.2-2.4,26.8-11.7,29.4-21.7C301.4,213.8,300.9,206.9,298.6,201.2z M281.9,220.3c-2.4-2-5.1-3.2-7.8-3.7c0,0,0.8-1.4,1.3-2.1
			c3.3,0.7,6,2.2,7.9,3.8C282.8,219,282.3,219.7,281.9,220.3z M284.9,216.1c-2.2-1.8-4.9-3.2-7.9-3.8c0.5-0.6,1-1.2,1.5-1.8
			c2.3,0.4,5.3,1.6,7.9,3.8C285.9,214.8,285.4,215.5,284.9,216.1z M288.3,212.1c-2.3-1.9-4.9-3.1-7.6-3.7c0.7-0.6,1.3-1.2,1.9-1.7
			c3.4,0.8,5.7,2.4,7.3,3.7C289.3,211,288.8,211.5,288.3,212.1z"/>
	</g>
</g>
</svg>
